<svg id="svg" version="1.1" xmlns="http://www.w3.org/2000/svg" xmlns:xlink="http://www.w3.org/1999/xlink" width="400" height="400" viewBox="0, 0, 400,400"><g id="svgg"><path id="path0" d="M98.118 113.646 C 96.872 115.150,96.916 112.938,96.671 186.914 C 96.394 270.598,96.254 296.943,96.058 302.344 C 95.976 304.600,95.816 297.393,95.703 286.328 L 95.497 266.211 95.444 286.133 C 95.414 297.090,95.531 306.494,95.703 307.031 C 95.970 307.864,96.026 307.893,96.087 307.227 C 96.133 306.722,96.503 307.207,97.131 308.594 C 97.666 309.775,98.663 311.340,99.345 312.070 C 100.313 313.106,100.414 313.343,99.805 313.144 C 99.137 312.926,99.161 313.006,99.967 313.688 C 100.486 314.128,101.154 314.394,101.452 314.279 C 101.750 314.165,101.891 314.238,101.765 314.441 C 100.897 315.846,103.492 316.055,122.579 316.120 C 139.722 316.178,140.306 316.201,129.883 316.402 C 123.652 316.521,158.226 316.660,206.713 316.708 C 272.940 316.775,295.145 316.684,295.971 316.343 C 296.575 316.094,297.190 315.914,297.337 315.944 C 297.728 316.023,300.391 314.870,300.391 314.620 C 300.391 314.503,300.171 314.539,299.902 314.700 C 299.571 314.900,299.586 314.782,299.950 314.333 C 300.531 313.617,300.979 313.427,300.586 314.063 C 299.851 315.251,301.335 314.171,302.736 312.497 C 306.321 308.216,305.977 319.313,305.882 210.976 C 305.809 128.784,305.720 115.430,305.239 114.949 C 304.932 114.642,304.769 114.247,304.877 114.072 C 305.171 113.596,304.081 113.289,301.824 113.214 L 299.805 113.146 302.344 112.891 C 305.690 112.554,271.266 112.425,265.881 112.755 C 262.731 112.947,261.719 113.140,261.719 113.547 C 261.719 117.551,255.718 123.208,250.402 124.217 C 248.053 124.662,166.250 124.713,154.062 124.276 L 146.600 124.009 145.077 122.854 C 142.644 121.009,141.229 118.839,139.825 114.799 C 139.555 114.023,139.142 113.392,138.906 113.396 C 134.973 113.472,128.652 113.113,130.078 112.895 C 131.045 112.747,124.436 112.630,115.392 112.635 L 98.948 112.644 98.118 113.646 M102.056 113.166 C 101.576 113.258,100.697 113.261,100.103 113.171 C 99.509 113.081,99.902 113.005,100.977 113.002 C 102.051 112.999,102.537 113.073,102.056 113.166 M274.918 113.179 C 273.691 113.256,271.581 113.257,270.230 113.180 C 268.879 113.104,269.883 113.041,272.461 113.040 C 275.039 113.039,276.145 113.102,274.918 113.179 M289.963 113.182 C 287.772 113.251,284.081 113.252,281.760 113.182 C 279.438 113.113,281.230 113.056,285.742 113.056 C 290.254 113.056,292.153 113.112,289.963 113.182 M142.520 117.383 C 143.162 118.697,146.515 121.486,147.450 121.483 C 147.671 121.482,147.236 121.119,146.484 120.675 C 145.732 120.232,144.447 119.134,143.628 118.235 C 142.809 117.337,142.311 116.953,142.520 117.383 M95.861 125.977 C 95.862 129.414,95.921 130.768,95.994 128.985 C 96.067 127.203,96.066 124.390,95.993 122.735 C 95.920 121.081,95.861 122.539,95.861 125.977 M148.926 121.764 C 149.517 121.854,150.483 121.854,151.074 121.764 C 151.665 121.675,151.182 121.601,150.000 121.601 C 148.818 121.601,148.335 121.675,148.926 121.764 M204.395 121.777 C 211.646 121.837,223.511 121.837,230.762 121.777 C 238.013 121.718,232.080 121.669,217.578 121.669 C 203.076 121.669,197.144 121.718,204.395 121.777 M261.720 171.290 C 262.343 171.612,263.433 172.711,264.142 173.731 L 265.430 175.586 265.547 189.053 C 265.691 205.661,265.291 207.037,259.504 209.831 L 257.617 210.742 200.977 210.742 L 144.336 210.742 142.723 209.880 C 137.636 207.159,136.817 204.714,136.490 191.283 C 136.103 175.393,137.063 172.672,143.599 171.138 C 146.486 170.460,260.399 170.607,261.720 171.290 M261.261 241.555 C 262.154 242.174,263.422 243.491,264.078 244.481 L 265.271 246.283 265.155 260.023 L 265.039 273.762 263.856 275.444 C 263.206 276.370,261.916 277.659,260.991 278.309 L 259.308 279.492 201.836 279.595 L 144.365 279.698 142.293 278.684 C 137.107 276.147,136.328 273.575,136.328 258.983 C 136.328 246.090,136.510 245.049,139.153 242.787 C 142.272 240.117,137.927 240.285,201.791 240.361 L 259.637 240.430 261.261 241.555 M149.331 316.303 C 148.211 316.382,146.277 316.382,145.034 316.305 C 143.791 316.227,144.707 316.163,147.070 316.162 C 149.434 316.161,150.451 316.224,149.331 316.303 " stroke="none" fill="#56b9c6" fill-rule="evenodd"></path><path id="path1" d="M0.000 200.000 L 0.000 400.000 200.000 400.000 L 400.000 400.000 400.000 200.000 L 400.000 0.000 200.000 0.000 L 0.000 0.000 0.000 200.000 M207.056 50.748 C 208.252 51.197,209.606 51.915,210.067 52.345 C 210.528 52.774,211.016 53.125,211.152 53.125 C 211.288 53.125,212.564 54.092,213.988 55.273 C 215.411 56.455,216.785 57.422,217.041 57.422 C 217.738 57.422,221.578 63.401,223.364 67.269 L 224.934 70.670 236.676 70.784 C 248.195 70.896,248.433 70.915,249.280 71.762 C 250.426 72.909,250.709 76.441,249.852 78.906 C 249.424 80.136,249.371 80.709,249.676 80.813 C 249.915 80.894,250.788 81.573,251.615 82.320 C 253.503 84.026,254.693 83.681,254.339 81.531 C 254.312 81.364,264.891 81.276,277.849 81.336 L 301.409 81.445 304.421 82.934 C 310.674 86.025,314.012 91.269,315.023 99.589 C 315.206 101.090,315.562 101.997,316.235 102.669 C 316.759 103.193,317.209 103.774,317.236 103.960 C 317.263 104.145,317.327 104.429,317.377 104.590 C 317.428 104.751,317.603 105.454,317.768 106.152 C 317.932 106.851,318.220 107.422,318.408 107.422 C 318.596 107.422,318.750 107.734,318.750 108.116 C 318.750 108.498,319.051 109.240,319.419 109.765 C 319.833 110.357,320.063 111.356,320.024 112.391 C 319.989 113.310,320.127 114.063,320.332 114.063 C 320.560 114.063,320.703 119.778,320.703 128.906 C 320.703 139.779,320.823 143.750,321.150 143.750 C 321.474 143.750,321.510 144.634,321.284 146.973 C 321.112 148.745,320.924 161.973,320.865 176.367 C 320.806 190.762,320.718 203.418,320.669 204.492 L 320.580 206.445 320.313 204.492 C 320.120 203.087,320.027 203.992,319.983 207.715 C 319.945 210.946,320.069 212.891,320.313 212.891 C 320.527 212.891,320.703 213.418,320.703 214.063 C 320.703 214.707,320.571 215.234,320.410 215.234 C 320.249 215.234,320.178 216.113,320.253 217.187 C 320.327 218.262,320.547 219.141,320.741 219.141 C 320.947 219.141,321.058 226.172,321.007 236.035 C 320.930 250.872,320.893 251.788,320.703 243.555 L 320.486 234.180 320.399 244.629 C 320.343 251.393,320.450 255.078,320.703 255.078 C 320.941 255.078,321.094 256.836,321.094 259.570 C 321.094 262.041,320.962 264.063,320.801 264.064 C 320.640 264.064,320.508 271.930,320.508 281.544 C 320.508 304.195,319.661 315.765,317.962 316.341 C 317.751 316.413,317.578 316.737,317.578 317.062 C 317.578 317.387,317.258 318.119,316.868 318.690 C 316.477 319.260,315.593 320.869,314.903 322.266 C 313.669 324.765,311.679 327.344,310.985 327.344 C 310.790 327.344,310.538 327.585,310.425 327.880 C 310.311 328.176,309.546 328.543,308.723 328.697 C 307.901 328.852,307.110 329.169,306.966 329.403 C 306.821 329.637,306.421 329.869,306.075 329.920 C 305.730 329.971,304.441 330.335,303.212 330.729 C 301.071 331.415,297.231 331.445,212.109 331.445 C 119.895 331.445,117.205 331.403,112.109 329.866 C 108.811 328.871,106.889 328.080,106.472 327.546 C 106.242 327.253,104.197 326.063,101.926 324.902 C 92.318 319.991,88.252 315.700,85.729 307.812 C 84.408 303.681,83.907 108.703,85.189 97.342 C 86.051 89.697,91.086 83.716,98.225 81.857 C 100.124 81.362,104.381 81.262,124.397 81.241 L 148.300 81.216 149.541 80.083 C 150.881 78.859,151.127 78.125,150.195 78.125 C 149.873 78.125,149.609 77.949,149.609 77.734 C 149.609 77.520,149.747 77.344,149.915 77.344 C 150.083 77.344,150.152 76.122,150.067 74.630 L 149.914 71.916 151.227 71.116 C 152.470 70.357,153.138 70.315,163.965 70.314 L 175.391 70.313 175.393 69.238 C 175.397 66.722,180.629 59.221,184.932 55.559 C 191.113 50.299,200.455 48.268,207.056 50.748 M199.128 57.314 C 199.830 57.401,200.885 57.399,201.472 57.310 C 202.059 57.221,201.484 57.150,200.195 57.152 C 198.906 57.154,198.426 57.227,199.128 57.314 M195.117 57.994 C 193.609 58.684,194.310 58.695,196.094 58.008 C 196.846 57.718,197.197 57.476,196.875 57.469 C 196.553 57.463,195.762 57.699,195.117 57.994 M207.624 59.248 C 212.860 62.764,216.032 67.038,219.169 74.805 C 220.269 77.527,220.638 83.171,219.810 84.620 C 218.853 86.295,216.866 87.602,215.716 87.313 C 215.129 87.166,214.595 87.074,214.530 87.109 C 214.465 87.144,214.008 86.908,213.515 86.585 C 212.689 86.043,212.429 86.088,210.195 87.152 C 206.774 88.781,189.255 89.803,187.141 88.496 C 186.880 88.335,186.554 88.316,186.417 88.453 C 186.149 88.721,188.180 90.625,188.733 90.625 C 188.914 90.625,189.063 90.977,189.063 91.406 C 189.063 91.968,189.323 92.188,189.991 92.188 C 190.502 92.188,191.137 92.449,191.403 92.770 C 191.709 93.138,192.228 93.266,192.818 93.118 C 193.380 92.977,193.750 93.056,193.750 93.317 C 193.750 93.595,194.796 93.750,196.680 93.750 C 198.372 93.750,199.609 93.915,199.609 94.141 C 199.609 94.370,200.977 94.531,202.930 94.531 C 204.883 94.531,206.250 94.692,206.250 94.922 C 206.250 95.137,206.602 95.313,207.031 95.313 C 207.552 95.313,207.813 95.573,207.813 96.094 C 207.813 96.745,208.073 96.875,209.375 96.875 C 210.677 96.875,210.938 97.005,210.938 97.656 C 210.938 98.307,211.198 98.438,212.500 98.438 C 213.802 98.438,214.063 98.568,214.063 99.219 C 214.063 99.913,214.323 100.000,216.406 100.000 C 218.490 100.000,218.750 100.087,218.750 100.781 C 218.750 101.399,219.010 101.563,219.994 101.563 C 220.677 101.563,222.292 101.937,223.580 102.394 C 226.082 103.283,230.315 103.262,232.011 102.354 C 232.657 102.009,232.813 102.042,232.813 102.525 C 232.813 102.865,233.152 103.125,233.594 103.125 C 234.470 103.125,234.706 101.761,233.887 101.431 C 233.595 101.313,233.674 101.221,234.082 101.203 C 234.820 101.169,234.900 101.577,234.521 103.467 C 234.352 104.313,234.053 104.688,233.545 104.688 C 231.478 104.688,232.836 106.158,235.059 106.325 C 236.294 106.418,237.920 106.774,238.672 107.116 C 243.189 109.168,244.716 109.767,245.457 109.779 C 246.241 109.793,246.233 109.825,245.313 110.352 C 243.836 111.195,244.738 111.047,246.477 110.160 C 248.223 109.269,249.856 107.303,250.615 105.177 C 251.192 103.560,251.352 96.524,250.781 97.852 C 250.494 98.520,250.442 98.534,250.418 97.949 C 250.400 97.501,250.076 97.266,249.476 97.266 C 248.593 97.266,246.471 95.285,240.708 89.081 L 238.730 86.950 239.697 86.053 C 240.987 84.858,241.213 84.896,243.971 86.766 C 246.127 88.228,248.178 90.681,248.506 92.188 C 248.576 92.510,248.721 92.861,248.828 92.969 C 249.355 93.496,250.000 94.997,250.000 95.698 C 250.000 96.130,250.188 96.484,250.417 96.484 C 252.791 96.484,246.846 88.019,242.736 85.547 L 240.462 84.180 230.639 84.053 L 220.815 83.926 220.595 80.532 C 220.095 72.817,215.188 63.734,209.430 59.863 C 208.072 58.950,206.760 58.203,206.515 58.203 C 206.269 58.203,206.769 58.673,207.624 59.248 M191.211 59.843 C 189.681 60.712,187.065 63.030,185.833 64.608 C 185.022 65.647,185.492 65.295,187.169 63.607 C 188.592 62.174,190.304 60.720,190.972 60.374 C 191.641 60.028,192.188 59.662,192.188 59.560 C 192.188 59.309,192.112 59.331,191.211 59.843 M198.141 65.558 C 197.871 65.730,198.750 65.803,200.094 65.719 C 203.409 65.515,203.828 65.301,200.977 65.271 C 199.688 65.258,198.412 65.387,198.141 65.558 M204.861 66.425 C 207.475 67.729,209.706 70.494,209.796 72.543 C 209.816 72.985,209.902 73.055,210.031 72.734 C 210.602 71.308,207.564 67.187,205.188 66.165 C 203.318 65.361,203.090 65.541,204.861 66.425 M195.371 67.190 C 193.196 68.766,193.299 69.028,195.508 67.537 C 197.064 66.487,197.566 66.016,197.129 66.016 C 197.054 66.016,196.263 66.544,195.371 67.190 M182.105 70.917 C 181.635 71.885,181.260 72.892,181.273 73.155 C 181.285 73.418,181.726 72.683,182.254 71.522 C 183.420 68.952,183.299 68.460,182.105 70.917 M192.755 70.349 C 192.411 71.013,192.199 71.626,192.284 71.711 C 192.369 71.796,192.730 71.252,193.088 70.503 C 193.891 68.818,193.613 68.689,192.755 70.349 M197.658 71.678 C 197.154 72.214,196.816 72.703,196.906 72.764 C 196.996 72.826,197.543 72.387,198.120 71.789 C 198.697 71.192,199.035 70.703,198.871 70.703 C 198.708 70.703,198.161 71.142,197.658 71.678 M201.900 71.695 C 202.640 72.318,203.136 73.152,203.234 73.941 L 203.391 75.195 203.453 73.979 C 203.514 72.797,202.002 70.703,201.089 70.703 C 200.887 70.703,201.251 71.149,201.900 71.695 M191.909 74.023 C 191.912 75.098,191.987 75.491,192.077 74.897 C 192.167 74.303,192.165 73.424,192.072 72.944 C 191.979 72.463,191.906 72.949,191.909 74.023 M198.332 72.502 C 198.175 72.658,198.052 73.153,198.059 73.600 C 198.070 74.352,198.102 74.361,198.477 73.716 C 198.914 72.965,198.802 72.031,198.332 72.502 M196.690 74.604 C 196.801 75.353,197.187 76.232,197.546 76.557 C 198.115 77.072,198.143 77.072,197.768 76.563 C 197.530 76.240,197.145 75.361,196.912 74.609 L 196.487 73.242 196.690 74.604 M180.465 76.980 L 179.969 80.163 178.641 79.947 C 177.384 79.743,177.267 79.824,176.474 81.457 C 175.159 84.163,174.378 84.375,165.716 84.375 L 158.308 84.375 155.560 85.750 C 154.021 86.520,152.173 87.831,151.362 88.730 C 145.465 95.257,148.078 111.638,154.961 111.293 C 155.348 111.274,155.122 111.100,154.461 110.908 C 147.856 108.990,146.242 95.280,151.883 89.005 C 155.155 85.366,157.128 84.766,165.824 84.766 C 173.594 84.766,175.298 84.445,176.169 82.818 C 176.618 81.979,176.625 81.981,177.763 83.172 C 178.392 83.830,178.906 84.194,178.906 83.981 C 178.906 83.768,179.258 83.594,179.688 83.594 C 180.351 83.594,180.469 83.333,180.469 81.864 C 180.469 80.913,180.656 78.786,180.886 77.138 C 181.115 75.490,181.225 74.064,181.131 73.970 C 181.037 73.875,180.737 75.230,180.465 76.980 M209.500 76.465 C 209.095 77.762,209.107 77.843,209.600 77.171 C 210.066 76.536,210.389 75.000,210.057 75.000 C 210.002 75.000,209.751 75.659,209.500 76.465 M192.578 77.768 C 192.578 78.914,197.970 82.238,198.679 81.529 C 198.781 81.427,198.235 81.226,197.465 81.081 C 196.582 80.916,195.420 80.201,194.321 79.148 C 193.363 78.229,192.578 77.608,192.578 77.768 M207.593 79.395 L 206.445 80.664 207.715 79.517 C 208.413 78.886,208.984 78.314,208.984 78.247 C 208.984 77.945,208.662 78.211,207.593 79.395 M145.333 83.077 C 136.987 92.559,137.583 115.425,146.309 120.540 L 147.892 121.468 197.494 121.493 C 250.681 121.520,250.478 121.527,248.991 119.703 C 248.464 119.056,248.405 119.045,248.589 119.629 C 248.707 120.005,248.633 120.313,248.425 120.313 C 247.716 120.313,248.044 118.362,248.896 117.510 C 249.637 116.769,249.650 116.707,248.994 117.022 C 248.551 117.235,228.718 117.428,200.699 117.494 L 153.155 117.605 150.839 116.436 C 143.896 112.931,141.587 101.027,146.096 91.992 C 147.762 88.654,148.165 87.011,146.920 88.630 C 145.348 90.675,144.852 88.205,146.206 85.079 C 147.446 82.218,147.612 81.660,147.286 81.458 C 147.098 81.342,146.219 82.070,145.333 83.077 M160.614 88.853 C 158.145 91.084,157.198 97.086,158.916 99.609 C 159.282 100.146,159.842 101.095,160.161 101.717 C 161.026 103.408,164.562 106.100,168.535 108.096 L 172.064 109.868 178.708 110.242 C 185.144 110.604,218.275 110.379,226.465 109.918 C 231.404 109.640,231.747 108.984,226.953 108.984 C 225.020 108.984,223.438 108.823,223.438 108.625 C 223.438 108.227,220.396 107.856,215.039 107.602 C 213.105 107.510,208.920 107.278,205.737 107.088 C 202.555 106.897,198.336 106.807,196.362 106.887 C 194.388 106.967,192.993 106.929,193.262 106.804 C 194.291 106.323,193.807 105.364,192.676 105.642 C 189.986 106.305,189.524 106.287,187.764 105.460 C 186.759 104.988,185.938 104.357,185.938 104.059 C 185.938 103.282,184.869 103.389,183.602 104.291 C 177.878 108.367,171.424 104.103,171.596 96.360 L 171.680 92.625 170.117 91.005 C 166.645 87.406,163.104 86.604,160.614 88.853 M165.234 102.176 C 165.234 102.583,164.949 102.747,164.386 102.664 C 163.135 102.480,163.002 101.563,164.225 101.563 C 164.882 101.563,165.234 101.777,165.234 102.176 M182.324 111.230 C 191.187 111.289,205.688 111.289,214.551 111.230 C 223.413 111.172,216.162 111.124,198.438 111.124 C 180.713 111.124,173.462 111.172,182.324 111.230 M242.094 111.214 C 242.580 111.307,243.283 111.304,243.657 111.206 C 244.030 111.108,243.633 111.032,242.773 111.036 C 241.914 111.040,241.608 111.120,242.094 111.214 M157.922 111.616 C 158.949 111.696,160.531 111.695,161.438 111.614 C 162.344 111.532,161.504 111.466,159.570 111.467 C 157.637 111.468,156.895 111.535,157.922 111.616 M233.708 111.618 C 235.167 111.694,237.452 111.693,238.786 111.617 C 240.120 111.541,238.926 111.479,236.133 111.480 C 233.340 111.481,232.249 111.543,233.708 111.618 M96.214 112.988 C 95.821 113.596,95.530 306.553,95.923 306.160 C 96.245 305.839,96.373 285.633,96.684 186.719 C 96.913 113.559,96.886 115.008,98.062 113.745 C 98.483 113.293,98.828 112.828,98.828 112.712 C 98.828 112.275,96.518 112.520,96.214 112.988 M107.324 112.783 C 108.022 112.869,109.165 112.869,109.863 112.783 C 110.562 112.696,109.990 112.625,108.594 112.625 C 107.197 112.625,106.626 112.696,107.324 112.783 M130.078 112.861 C 128.760 113.071,129.640 113.183,133.594 113.309 C 136.494 113.401,138.940 113.433,139.030 113.379 C 140.122 112.723,133.394 112.334,130.078 112.861 M302.344 112.918 L 299.805 113.146 301.953 113.220 C 303.998 113.290,305.184 113.659,305.111 114.204 C 305.014 114.935,305.118 115.234,305.469 115.234 C 306.039 115.234,305.948 113.000,305.371 112.832 C 305.103 112.754,303.740 112.793,302.344 112.918 M100.103 113.171 C 100.697 113.261,101.576 113.258,102.056 113.166 C 102.537 113.073,102.051 112.999,100.977 113.002 C 99.902 113.005,99.509 113.081,100.103 113.171 M270.230 113.180 C 271.581 113.257,273.691 113.256,274.918 113.179 C 276.145 113.102,275.039 113.039,272.461 113.040 C 269.883 113.041,268.879 113.104,270.230 113.180 M281.760 113.182 C 284.081 113.252,287.772 113.251,289.963 113.182 C 292.153 113.112,290.254 113.056,285.742 113.056 C 281.230 113.056,279.438 113.113,281.760 113.182 M201.563 174.997 C 245.504 175.149,258.982 175.306,259.618 175.671 C 261.029 176.480,261.329 178.937,261.311 189.528 C 261.291 201.445,261.138 202.472,259.117 204.249 C 258.292 204.975,257.994 205.374,258.454 205.137 C 261.514 203.558,261.840 201.759,261.654 187.482 C 261.512 176.596,261.357 175.828,259.134 174.983 C 258.522 174.750,236.709 174.645,201.244 174.704 L 144.336 174.800 201.563 174.997 M142.580 175.975 C 142.076 176.511,141.738 177.000,141.828 177.061 C 141.918 177.123,142.464 176.684,143.041 176.086 C 143.619 175.489,143.957 175.000,143.793 175.000 C 143.629 175.000,143.083 175.439,142.580 175.975 M189.753 186.611 C 190.455 186.698,191.510 186.696,192.097 186.607 C 192.684 186.518,192.109 186.447,190.820 186.449 C 189.531 186.451,189.051 186.524,189.753 186.611 M198.961 186.777 C 199.356 187.002,200.097 187.107,200.609 187.009 C 201.223 186.892,201.447 186.978,201.267 187.263 C 201.118 187.501,201.047 188.003,201.109 188.379 C 201.170 188.755,201.034 189.063,200.806 189.063 C 200.577 189.063,200.391 188.857,200.391 188.607 C 200.391 188.356,200.275 188.267,200.133 188.409 C 199.991 188.551,200.148 188.976,200.482 189.353 C 200.997 189.934,201.093 190.745,200.831 192.285 C 200.804 192.446,200.611 192.578,200.403 192.578 C 200.195 192.578,200.120 192.271,200.237 191.895 C 200.438 191.248,200.426 191.248,200.008 191.898 C 199.766 192.275,199.675 192.759,199.807 192.972 C 199.959 193.218,198.365 193.389,195.433 193.442 L 190.820 193.524 196.875 193.734 C 206.242 194.061,207.815 193.565,207.811 190.289 C 207.807 187.389,206.537 186.536,202.088 186.445 C 199.236 186.386,198.428 186.472,198.961 186.777 M186.178 187.756 C 185.025 188.910,184.613 190.082,184.875 191.464 C 184.997 192.105,185.066 191.955,185.103 190.971 C 185.161 189.429,186.347 187.629,187.652 187.102 C 188.236 186.865,188.293 186.761,187.846 186.744 C 187.500 186.730,186.749 187.186,186.178 187.756 M141.158 195.508 C 141.159 197.656,141.225 198.485,141.304 197.350 C 141.383 196.215,141.382 194.457,141.302 193.444 C 141.222 192.431,141.157 193.359,141.158 195.508 M187.798 194.026 C 188.283 194.120,188.987 194.116,189.360 194.018 C 189.733 193.921,189.336 193.844,188.477 193.849 C 187.617 193.853,187.312 193.933,187.798 194.026 M141.434 202.260 C 141.357 203.664,143.929 205.883,145.586 205.842 C 145.973 205.833,145.613 205.584,144.786 205.289 C 143.392 204.792,142.373 203.815,141.727 202.357 C 141.553 201.964,141.452 201.931,141.434 202.260 M166.728 205.762 C 174.532 205.821,187.188 205.821,194.853 205.762 C 202.518 205.702,196.133 205.654,180.664 205.654 C 165.195 205.654,158.924 205.702,166.728 205.762 M224.121 205.759 C 225.679 205.833,228.228 205.833,229.785 205.759 C 231.343 205.685,230.068 205.624,226.953 205.624 C 223.838 205.624,222.563 205.685,224.121 205.759 M244.043 205.760 C 246.030 205.831,249.282 205.831,251.270 205.760 C 253.257 205.689,251.631 205.631,247.656 205.631 C 243.682 205.631,242.056 205.689,244.043 205.760 M255.566 205.738 C 255.942 205.836,256.558 205.836,256.934 205.738 C 257.310 205.640,257.002 205.559,256.250 205.559 C 255.498 205.559,255.190 205.640,255.566 205.738 M259.766 245.822 C 260.244 246.428,260.390 248.627,260.559 257.755 L 260.766 268.945 260.852 257.932 C 260.937 246.988,260.932 246.913,260.059 245.999 C 259.575 245.493,259.443 245.413,259.766 245.822 M141.186 258.008 C 141.186 263.594,141.241 265.825,141.308 262.965 C 141.375 260.106,141.374 255.536,141.307 252.809 C 141.240 250.082,141.186 252.422,141.186 258.008 M183.985 251.980 C 178.909 254.113,180.668 265.566,186.491 268.303 C 188.774 269.376,209.694 269.611,211.640 268.585 C 218.441 265.001,220.066 255.847,214.453 252.737 L 212.695 251.763 198.828 251.666 C 189.802 251.604,184.620 251.713,183.985 251.980 M212.373 253.726 C 213.900 253.978,215.995 256.247,216.068 257.728 C 216.185 260.096,215.911 262.338,215.438 262.891 C 215.162 263.213,214.816 263.872,214.668 264.355 C 214.521 264.839,214.248 265.234,214.063 265.234 C 213.877 265.234,213.615 265.580,213.480 266.003 C 212.881 267.894,188.984 268.500,186.303 266.693 C 182.003 263.796,180.765 255.577,184.365 253.831 C 185.421 253.319,209.364 253.229,212.373 253.726 M141.773 272.579 C 142.233 273.472,144.366 275.007,145.117 274.987 C 145.332 274.981,145.156 274.783,144.727 274.546 C 144.297 274.309,143.352 273.568,142.627 272.898 C 141.517 271.873,141.382 271.822,141.773 272.579 M148.730 274.897 C 149.858 274.976,151.704 274.976,152.832 274.897 C 153.960 274.818,153.037 274.754,150.781 274.754 C 148.525 274.754,147.603 274.818,148.730 274.897 M160.454 274.886 C 160.940 274.979,161.643 274.976,162.016 274.878 C 162.390 274.780,161.992 274.704,161.133 274.708 C 160.273 274.712,159.968 274.792,160.454 274.886 M254.594 275.276 C 255.080 275.370,255.783 275.366,256.157 275.268 C 256.530 275.171,256.133 275.094,255.273 275.099 C 254.414 275.103,254.108 275.183,254.594 275.276 M96.134 307.227 C 96.082 308.982,98.892 313.281,100.092 313.281 C 100.341 313.281,99.995 312.710,99.324 312.012 C 98.653 311.313,97.666 309.775,97.131 308.594 C 96.572 307.361,96.148 306.778,96.134 307.227 M114.968 316.308 C 119.870 316.370,127.781 316.370,132.546 316.308 C 137.312 316.246,133.301 316.195,123.633 316.195 C 113.965 316.195,110.066 316.246,114.968 316.308 M145.034 316.305 C 146.277 316.382,148.211 316.382,149.331 316.303 C 150.451 316.224,149.434 316.161,147.070 316.162 C 144.707 316.163,143.791 316.227,145.034 316.305 M383.489 353.997 C 387.846 358.338,388.140 358.997,386.244 360.151 L 384.987 360.915 383.997 360.049 C 383.117 359.278,383.127 359.315,384.090 360.383 C 385.269 361.690,384.515 363.328,383.002 362.747 C 382.648 362.611,382.482 362.672,382.617 362.890 C 382.746 363.099,379.055 367.052,374.415 371.674 C 369.775 376.296,366.102 380.078,366.253 380.078 C 366.404 380.078,366.209 380.430,365.820 380.859 C 365.431 381.289,364.952 381.641,364.755 381.641 C 364.336 381.641,363.656 382.340,363.033 383.415 C 362.696 383.995,362.246 384.152,361.164 384.063 C 360.118 383.978,358.736 384.423,355.963 385.736 L 352.188 387.524 351.061 386.397 L 349.934 385.270 351.607 381.991 C 352.890 379.477,353.286 378.259,353.301 376.777 C 353.319 374.951,353.401 374.800,354.770 374.079 C 355.568 373.659,356.122 373.156,356.002 372.961 C 355.748 372.550,356.959 371.094,357.555 371.094 C 358.095 371.094,374.601 354.609,374.606 354.064 C 374.613 353.184,375.985 352.316,376.547 352.837 C 376.896 353.161,376.983 353.170,376.812 352.864 C 376.671 352.612,376.833 352.129,377.173 351.789 C 377.512 351.450,377.668 351.172,377.519 351.172 C 377.370 351.172,377.467 350.908,377.734 350.586 C 378.638 349.497,379.468 349.989,383.489 353.997 M358.594 360.156 L 359.375 360.938 358.594 361.719 L 357.813 362.500 357.031 361.719 C 356.286 360.973,356.281 360.903,356.934 360.189 C 357.800 359.240,357.680 359.243,358.594 360.156 M383.530 373.033 C 383.789 373.775,384.294 374.282,384.936 374.443 C 386.223 374.766,386.217 375.306,384.922 375.630 C 384.278 375.792,383.765 376.294,383.517 377.005 C 383.022 378.426,382.704 378.418,382.157 376.971 C 381.882 376.241,381.347 375.723,380.705 375.561 C 379.368 375.226,379.417 374.780,380.846 374.282 C 381.588 374.023,382.094 373.519,382.255 372.877 C 382.587 371.555,383.034 371.610,383.530 373.033 " stroke="none" fill="#b9bab9" fill-rule="evenodd"></path><path id="path2" d="M195.641 50.542 C 188.536 52.171,181.241 58.180,177.396 65.569 C 175.401 69.405,175.217 69.041,179.224 69.190 L 182.472 69.312 183.677 67.371 C 189.566 57.881,199.702 54.448,208.532 58.953 C 214.479 61.987,220.147 72.060,220.901 80.935 L 221.156 83.941 230.988 83.970 L 240.820 84.000 243.970 86.139 C 253.445 92.573,254.155 107.993,245.119 111.072 C 243.395 111.659,239.127 111.719,198.882 111.719 C 148.679 111.719,152.501 111.966,150.098 108.567 C 149.507 107.732,148.810 107.044,148.549 107.040 C 147.961 107.029,147.452 106.069,147.127 104.356 C 146.991 103.636,146.432 102.516,145.886 101.867 C 145.047 100.870,144.919 100.393,145.060 98.785 C 145.308 95.962,144.637 96.862,144.325 99.772 C 143.588 106.650,146.355 113.371,151.021 116.041 L 153.057 117.206 200.064 117.099 L 247.070 116.992 249.150 115.840 C 256.167 111.953,256.757 97.849,250.289 88.583 C 248.778 86.418,248.748 86.314,249.363 85.374 C 250.218 84.070,250.168 82.304,249.254 81.477 C 248.519 80.812,248.520 80.773,249.296 79.017 C 249.891 77.673,250.045 76.664,249.919 74.932 C 249.646 71.147,250.248 71.319,236.536 71.094 L 224.661 70.898 223.032 67.643 C 222.136 65.853,220.932 63.831,220.357 63.151 C 219.782 62.471,218.810 61.211,218.197 60.352 C 212.859 52.865,203.418 48.759,195.641 50.542 M197.266 66.663 C 188.715 71.677,191.586 81.564,201.612 81.631 C 204.525 81.651,207.567 79.696,209.020 76.871 C 212.309 70.477,203.624 62.935,197.266 66.663 M202.578 71.641 C 204.058 73.121,204.178 73.732,203.314 75.403 C 201.144 79.600,194.837 77.202,196.647 72.869 C 197.824 70.053,200.447 69.510,202.578 71.641 M166.406 71.129 C 165.010 71.274,161.032 71.414,157.567 71.439 C 153.037 71.472,151.153 71.622,150.860 71.975 C 150.012 72.998,149.926 74.606,150.606 76.769 L 151.292 78.949 149.688 80.588 C 148.164 82.144,146.525 85.126,147.163 85.183 C 150.669 85.493,151.021 85.781,150.222 87.692 C 149.258 89.999,149.475 90.077,151.526 88.158 C 155.265 84.661,156.483 84.306,165.430 84.108 C 175.546 83.884,176.301 83.527,176.839 78.728 C 177.115 76.276,177.495 75.781,179.104 75.781 C 181.013 75.781,181.528 73.431,180.003 71.677 C 179.089 70.626,173.440 70.398,166.406 71.129 M170.549 76.000 C 173.761 76.338,174.145 76.606,173.290 77.911 C 172.638 78.907,172.540 78.928,169.775 78.678 C 168.210 78.536,164.837 78.398,162.279 78.370 C 157.424 78.318,156.898 78.100,157.548 76.406 C 157.767 75.837,166.422 75.566,170.549 76.000 M255.272 81.579 C 255.198 81.652,255.494 82.531,255.930 83.532 C 257.461 87.041,258.267 89.677,258.817 92.969 C 259.425 96.606,259.578 105.078,259.035 105.078 C 258.577 105.078,258.214 102.697,258.201 99.609 C 258.190 96.715,256.899 91.106,256.048 90.256 C 255.605 89.813,255.651 90.288,256.255 92.401 C 257.254 95.894,257.349 105.471,256.429 109.838 C 256.097 111.409,255.925 113.091,256.046 113.574 C 256.190 114.152,256.089 114.453,255.750 114.453 C 255.467 114.453,255.004 115.112,254.721 115.918 C 253.187 120.290,250.227 121.756,242.383 122.029 C 228.859 122.499,147.246 122.345,146.647 121.848 C 146.332 121.587,145.962 121.486,145.824 121.624 C 145.686 121.762,145.807 121.875,146.094 121.875 C 146.380 121.875,146.500 121.990,146.360 122.130 C 144.998 123.492,161.626 123.841,234.961 123.991 L 250.977 124.023 253.660 122.669 C 256.140 121.417,258.984 118.648,258.984 117.485 C 258.984 117.280,259.324 116.635,259.740 116.052 C 260.155 115.469,260.610 114.531,260.751 113.969 C 261.127 112.474,260.331 112.524,284.048 112.487 C 308.341 112.448,306.624 112.244,306.635 115.175 C 306.638 116.110,306.897 117.428,307.211 118.105 C 307.550 118.835,307.861 121.085,307.976 123.633 C 308.083 125.996,308.265 129.160,308.382 130.664 C 308.515 132.375,308.419 133.827,308.126 134.545 C 307.763 135.435,307.763 135.726,308.126 135.847 C 308.466 135.960,308.594 137.913,308.594 143.001 L 308.594 150.000 310.308 150.000 C 312.581 150.000,312.676 150.462,312.718 161.719 C 312.736 166.553,312.952 171.826,313.199 173.438 C 313.526 175.569,313.625 193.212,313.562 238.184 C 313.513 273.865,313.623 300.049,313.823 300.115 C 314.584 300.369,313.666 306.195,312.844 306.325 C 312.423 306.391,312.074 306.574,312.069 306.731 C 312.063 306.888,311.914 307.521,311.738 308.137 C 311.442 309.167,311.493 309.249,312.373 309.153 C 313.040 309.080,313.444 309.304,313.707 309.895 C 314.050 310.665,314.071 310.670,313.937 309.949 C 313.856 309.513,314.005 308.956,314.268 308.710 C 315.398 307.655,315.393 309.994,314.634 139.648 C 314.541 118.809,314.295 100.264,314.087 98.438 C 313.012 88.980,307.681 83.028,299.023 81.619 C 296.557 81.218,255.677 81.180,255.272 81.579 M103.516 82.031 C 103.516 82.246,104.175 82.410,104.980 82.394 C 106.156 82.372,106.291 82.301,105.664 82.031 C 104.579 81.565,103.516 81.565,103.516 82.031 M107.422 82.031 C 107.422 82.534,112.113 82.534,112.891 82.031 C 113.297 81.769,112.548 81.651,110.449 81.647 C 108.687 81.643,107.422 81.804,107.422 82.031 M114.746 81.916 C 115.229 82.009,116.021 82.009,116.504 81.916 C 116.987 81.823,116.592 81.747,115.625 81.747 C 114.658 81.747,114.263 81.823,114.746 81.916 M137.012 81.923 C 137.710 82.010,138.853 82.010,139.551 81.923 C 140.249 81.837,139.678 81.766,138.281 81.766 C 136.885 81.766,136.313 81.837,137.012 81.923 M180.469 171.094 C 132.008 171.345,136.719 169.336,136.719 189.753 C 136.719 196.377,136.865 201.964,137.044 202.168 C 137.222 202.372,137.587 203.308,137.855 204.248 C 138.487 206.465,141.399 209.416,143.600 210.069 C 144.834 210.436,158.246 210.547,201.326 210.547 L 257.444 210.547 259.679 209.412 C 265.120 206.649,265.234 206.242,265.234 189.622 C 265.234 174.476,265.255 174.606,262.445 172.067 L 260.907 170.677 239.535 170.788 C 227.781 170.849,201.201 170.986,180.469 171.094 M258.712 174.636 C 261.636 175.448,261.716 175.846,261.717 189.655 C 261.719 203.210,261.635 203.682,258.940 205.273 C 256.990 206.425,146.006 206.709,143.777 205.569 C 141.230 204.266,141.080 203.486,140.967 191.016 C 140.842 177.289,141.194 175.537,144.261 174.650 C 146.090 174.121,256.809 174.107,258.712 174.636 M186.523 188.587 C 186.094 188.956,185.682 189.873,185.608 190.625 C 185.503 191.699,186.031 192.130,186.167 191.081 C 186.221 190.664,186.744 189.316,187.141 188.574 C 187.590 187.735,187.515 187.736,186.523 188.587 M312.046 196.112 C 312.119 197.391,312.331 198.438,312.516 198.438 C 312.880 198.438,312.558 194.516,312.157 194.061 C 312.023 193.910,311.974 194.833,312.046 196.112 M312.109 202.930 C 312.109 204.622,311.944 205.859,311.719 205.859 C 311.504 205.859,311.328 206.463,311.328 207.201 C 311.328 208.898,310.670 210.669,310.157 210.352 C 309.928 210.211,309.766 210.606,309.766 211.305 C 309.766 212.053,309.948 212.463,310.254 212.402 C 310.617 212.330,310.771 213.453,310.853 216.773 C 310.919 219.401,311.149 221.464,311.414 221.783 C 311.703 222.132,311.924 225.014,312.037 229.912 C 312.360 244.016,312.829 237.618,312.855 218.750 C 312.872 206.645,312.744 200.000,312.495 200.000 C 312.275 200.000,312.109 201.261,312.109 202.930 M143.750 240.595 C 137.090 242.659,136.635 243.867,136.698 259.351 C 136.758 274.375,137.342 276.241,142.771 278.769 L 144.727 279.680 200.586 279.667 C 265.225 279.651,261.093 279.954,263.990 275.027 L 265.039 273.242 265.165 260.547 C 265.320 245.032,265.102 244.112,260.617 241.324 L 259.180 240.430 201.953 240.361 C 170.479 240.323,144.287 240.429,143.750 240.595 M308.866 246.627 C 308.576 249.477,308.673 250.442,309.197 249.918 C 309.314 249.801,309.358 248.321,309.295 246.630 L 309.180 243.555 308.866 246.627 M258.998 244.734 C 261.081 245.811,261.124 246.091,261.248 259.375 C 261.374 272.872,261.244 273.762,258.984 274.891 C 257.141 275.812,145.480 275.591,143.744 274.663 C 140.886 273.135,140.817 272.770,140.847 259.270 C 140.876 246.079,140.905 245.916,143.397 244.634 C 144.945 243.839,257.454 243.935,258.998 244.734 M309.075 282.813 C 309.075 283.564,309.155 283.872,309.254 283.496 C 309.352 283.120,309.352 282.505,309.254 282.129 C 309.155 281.753,309.075 282.061,309.075 282.813 M309.466 301.563 C 309.466 302.314,309.546 302.622,309.644 302.246 C 309.743 301.870,309.743 301.255,309.644 300.879 C 309.546 300.503,309.466 300.811,309.466 301.563 M307.301 317.383 C 307.445 318.447,307.349 318.750,306.868 318.750 C 306.528 318.750,306.250 318.578,306.250 318.368 C 306.250 317.676,304.369 316.721,303.529 316.988 C 303.086 317.129,302.824 317.407,302.947 317.606 C 303.070 317.806,302.909 317.969,302.588 317.969 C 302.268 317.969,301.894 318.320,301.758 318.750 C 301.621 319.180,301.170 319.531,300.755 319.531 C 300.340 319.531,300.000 319.795,300.000 320.117 C 300.000 320.520,299.596 320.703,298.711 320.703 C 298.002 320.703,297.240 320.885,297.018 321.107 C 296.576 321.549,295.313 321.219,295.313 320.661 C 295.313 320.469,293.921 320.313,292.220 320.313 C 290.101 320.313,289.072 320.159,288.951 319.824 C 288.815 319.450,288.597 319.440,288.014 319.783 C 287.056 320.345,281.528 320.171,281.329 319.572 C 281.228 319.269,277.473 319.141,268.717 319.141 C 260.666 319.141,256.250 319.002,256.250 318.750 C 256.250 318.495,262.736 318.355,274.902 318.347 C 290.161 318.337,293.684 318.236,294.267 317.794 C 294.875 317.334,281.883 317.251,206.377 317.231 C 157.645 317.218,114.873 317.105,111.328 316.980 C 107.041 316.829,105.083 316.881,105.480 317.137 C 106.027 317.488,128.922 317.850,161.328 318.020 C 168.282 318.057,171.654 318.190,170.313 318.376 C 169.131 318.539,162.671 318.690,155.957 318.711 L 143.750 318.750 143.750 319.727 C 143.750 321.073,138.220 321.236,136.819 319.932 C 135.996 319.164,135.963 319.164,130.041 319.927 C 126.217 320.419,123.930 320.560,123.642 320.320 C 123.395 320.115,122.545 320.052,121.753 320.181 C 120.804 320.335,120.312 320.264,120.313 319.973 C 120.313 319.730,120.664 319.531,121.094 319.531 C 121.523 319.531,121.875 319.355,121.875 319.141 C 121.875 318.926,121.172 318.750,120.313 318.750 C 118.906 318.750,118.750 318.848,118.750 319.727 L 118.750 320.703 114.453 320.703 C 111.279 320.703,110.155 320.831,110.150 321.191 C 110.146 321.520,110.014 321.488,109.747 321.094 C 109.448 320.653,109.377 320.847,109.460 321.875 L 109.570 323.242 112.036 323.327 C 114.074 323.397,114.628 323.567,115.224 324.304 C 115.934 325.182,116.103 325.198,126.234 325.391 C 131.893 325.498,136.743 325.728,137.012 325.902 C 137.300 326.089,137.500 326.038,137.500 325.778 C 137.500 325.536,137.808 325.436,138.184 325.555 C 138.560 325.674,152.315 325.761,168.750 325.749 C 185.186 325.736,207.334 325.766,217.969 325.816 C 270.260 326.063,292.393 325.973,293.945 325.508 C 294.805 325.250,295.998 324.937,296.598 324.813 C 297.198 324.688,297.593 324.432,297.476 324.244 C 297.360 324.055,297.629 323.996,298.075 324.113 C 298.892 324.327,301.832 323.577,302.520 322.979 C 302.724 322.801,303.178 322.656,303.529 322.656 C 303.880 322.656,304.618 322.173,305.169 321.582 C 305.720 320.991,306.848 320.100,307.675 319.602 C 308.503 319.104,309.512 318.247,309.919 317.698 L 310.658 316.698 309.235 316.865 C 308.243 316.980,307.813 316.877,307.813 316.523 C 307.813 316.244,307.656 316.016,307.465 316.016 C 307.274 316.016,307.200 316.631,307.301 317.383 M297.070 316.797 C 296.785 317.259,297.167 317.259,298.242 316.797 C 298.995 316.473,298.993 316.460,298.168 316.434 C 297.697 316.419,297.203 316.582,297.070 316.797 M177.246 318.639 C 176.655 318.729,175.688 318.729,175.098 318.639 C 174.507 318.550,174.990 318.476,176.172 318.476 C 177.354 318.476,177.837 318.550,177.246 318.639 M188.379 318.635 C 187.896 318.728,187.104 318.728,186.621 318.635 C 186.138 318.542,186.533 318.466,187.500 318.466 C 188.467 318.466,188.862 318.542,188.379 318.635 M218.750 318.750 C 218.750 318.965,218.147 319.141,217.410 319.141 C 216.318 319.141,216.047 319.303,215.945 320.020 C 215.827 320.852,215.646 320.898,212.500 320.898 C 209.354 320.898,209.173 320.852,209.055 320.020 C 208.953 319.303,208.682 319.141,207.590 319.141 C 206.853 319.141,206.250 318.965,206.250 318.750 C 206.250 318.506,208.594 318.359,212.500 318.359 C 216.406 318.359,218.750 318.506,218.750 318.750 M227.832 318.647 C 226.704 318.726,224.858 318.726,223.730 318.647 C 222.603 318.568,223.525 318.504,225.781 318.504 C 228.037 318.504,228.960 318.568,227.832 318.647 M235.456 318.638 C 234.869 318.728,233.815 318.729,233.112 318.642 C 232.410 318.556,232.891 318.483,234.180 318.480 C 235.469 318.478,236.043 318.549,235.456 318.638 M238.969 318.628 C 238.596 318.726,237.893 318.729,237.407 318.636 C 236.921 318.542,237.227 318.462,238.086 318.458 C 238.945 318.454,239.343 318.530,238.969 318.628 M252.051 318.642 C 251.353 318.729,250.210 318.729,249.512 318.642 C 248.813 318.555,249.385 318.484,250.781 318.484 C 252.178 318.484,252.749 318.555,252.051 318.642 M210.938 319.531 C 210.938 320.226,211.198 320.313,213.281 320.313 C 215.365 320.313,215.625 320.226,215.625 319.531 C 215.625 318.837,215.365 318.750,213.281 318.750 C 211.198 318.750,210.938 318.837,210.938 319.531 M192.090 320.597 C 191.284 320.681,189.966 320.681,189.160 320.597 C 188.354 320.513,189.014 320.444,190.625 320.444 C 192.236 320.444,192.896 320.513,192.090 320.597 M205.371 320.582 C 204.995 320.680,204.380 320.680,204.004 320.582 C 203.628 320.484,203.936 320.403,204.688 320.403 C 205.439 320.403,205.747 320.484,205.371 320.582 M204.395 324.116 C 203.267 324.195,201.421 324.195,200.293 324.116 C 199.165 324.037,200.088 323.973,202.344 323.973 C 204.600 323.973,205.522 324.037,204.395 324.116 M288.672 324.165 C 288.672 324.350,288.232 324.417,287.695 324.314 C 287.158 324.212,286.719 324.060,286.719 323.978 C 286.719 323.896,287.158 323.828,287.695 323.828 C 288.232 323.828,288.672 323.980,288.672 324.165 M378.300 350.815 C 378.153 351.051,379.904 353.115,382.269 355.494 C 385.516 358.759,386.576 359.616,386.822 359.177 C 387.314 358.297,386.651 357.408,382.774 353.759 C 379.115 350.314,378.755 350.078,378.300 350.815 M375.267 353.436 C 374.670 354.096,374.894 354.398,379.038 358.530 L 383.443 362.923 384.179 362.110 C 384.911 361.301,384.891 361.271,380.648 357.015 C 375.954 352.307,376.163 352.446,375.267 353.436 M373.026 360.417 C 368.667 362.553,362.500 369.985,362.500 373.101 C 362.500 376.723,368.056 375.144,373.117 370.084 C 380.206 362.995,380.149 356.927,373.026 360.417 M356.517 372.186 C 355.920 372.846,356.144 373.148,360.288 377.280 L 364.693 381.673 365.429 380.860 C 366.161 380.051,366.141 380.021,361.898 375.765 C 357.204 371.057,357.413 371.196,356.517 372.186 M353.759 375.210 C 353.628 375.552,353.778 375.907,354.108 376.033 C 354.427 376.155,354.688 376.423,354.688 376.627 C 354.688 376.832,354.524 376.898,354.325 376.775 C 353.952 376.544,353.760 377.007,353.318 379.199 C 353.178 379.897,352.886 380.469,352.671 380.469 C 352.455 380.469,352.351 380.687,352.440 380.954 C 352.529 381.221,352.100 382.291,351.487 383.331 L 350.372 385.222 351.260 386.159 C 352.171 387.119,353.125 387.409,353.125 386.726 C 353.125 386.515,353.557 386.235,354.086 386.102 C 354.614 385.969,355.251 385.614,355.501 385.313 C 355.751 385.012,356.334 384.766,356.797 384.766 C 357.260 384.766,357.985 384.528,358.409 384.238 C 359.517 383.480,361.048 383.179,361.712 383.589 C 363.914 384.950,362.365 382.502,358.687 378.809 C 354.268 374.371,354.122 374.264,353.759 375.210 " stroke="none" fill="#71504b" fill-rule="evenodd"></path><path id="path3" d="M195.385 50.202 C 187.244 52.071,175.404 63.345,175.393 69.238 L 175.391 70.313 163.965 70.314 C 151.399 70.316,149.992 70.561,150.006 72.748 C 150.011 73.620,150.019 73.618,150.505 72.656 C 150.997 71.681,151.007 71.679,158.409 71.424 C 162.485 71.283,168.784 71.041,172.405 70.887 L 178.990 70.607 179.925 71.614 C 180.439 72.169,180.874 72.937,180.893 73.323 C 180.916 73.799,181.022 73.710,181.225 73.047 C 181.390 72.510,181.997 71.104,182.576 69.922 C 183.154 68.740,183.353 68.119,183.017 68.541 C 182.470 69.231,176.483 69.563,175.844 68.939 C 175.512 68.616,179.273 62.099,180.965 60.066 C 191.864 46.970,208.748 47.100,218.197 60.352 C 218.810 61.211,219.782 62.471,220.357 63.151 C 220.932 63.831,222.136 65.853,223.032 67.643 L 224.661 70.898 236.536 71.094 C 250.248 71.319,249.646 71.147,249.919 74.932 C 250.045 76.664,249.891 77.673,249.296 79.017 C 248.520 80.773,248.519 80.812,249.254 81.477 C 250.168 82.304,250.218 84.070,249.363 85.374 C 248.748 86.314,248.778 86.418,250.289 88.583 C 256.757 97.849,256.167 111.953,249.150 115.840 L 247.070 116.992 200.064 117.099 L 153.057 117.206 151.021 116.041 C 146.355 113.371,143.588 106.650,144.325 99.772 C 144.637 96.862,145.308 95.962,145.060 98.785 C 144.919 100.393,145.047 100.870,145.886 101.867 C 146.432 102.516,146.991 103.636,147.127 104.356 C 147.453 106.072,147.962 107.031,148.549 107.034 C 148.810 107.035,149.441 107.650,149.952 108.400 C 150.917 109.817,153.379 111.595,153.797 111.177 C 153.929 111.045,153.832 110.938,153.582 110.938 C 149.917 110.938,146.935 101.215,148.481 94.310 C 148.766 93.035,148.967 91.553,148.926 91.016 C 148.860 90.135,148.887 90.116,149.203 90.820 C 149.396 91.250,149.567 91.413,149.582 91.184 C 149.640 90.304,152.524 87.413,154.441 86.313 C 156.554 85.101,156.676 84.714,154.607 85.784 C 153.939 86.129,152.542 87.208,151.501 88.181 C 149.474 90.077,149.260 89.995,150.222 87.692 C 151.021 85.781,150.669 85.493,147.163 85.183 C 146.527 85.126,148.162 82.147,149.678 80.598 C 151.322 78.919,151.667 76.638,150.191 77.204 C 149.436 77.494,149.439 78.125,150.195 78.125 C 151.127 78.125,150.881 78.859,149.541 80.083 L 148.300 81.216 124.397 81.241 C 104.381 81.262,100.124 81.362,98.225 81.857 C 91.086 83.716,86.051 89.697,85.189 97.342 C 83.907 108.703,84.408 303.681,85.729 307.812 C 88.252 315.700,92.318 319.991,101.926 324.902 C 104.197 326.063,106.242 327.253,106.472 327.546 C 106.889 328.080,108.811 328.871,112.109 329.866 C 117.205 331.403,119.895 331.445,212.109 331.445 C 297.231 331.445,301.071 331.415,303.212 330.729 C 304.441 330.335,305.730 329.971,306.075 329.920 C 306.421 329.869,306.821 329.637,306.966 329.403 C 307.110 329.169,307.901 328.852,308.723 328.697 C 309.546 328.543,310.311 328.176,310.425 327.880 C 310.538 327.585,310.790 327.344,310.985 327.344 C 311.679 327.344,313.669 324.765,314.903 322.266 C 315.593 320.869,316.477 319.260,316.868 318.690 C 317.258 318.119,317.578 317.387,317.578 317.062 C 317.578 316.737,317.751 316.413,317.962 316.341 C 319.661 315.765,320.508 304.195,320.508 281.544 C 320.508 271.930,320.640 264.064,320.801 264.064 C 320.962 264.063,321.094 262.041,321.094 259.570 C 321.094 256.836,320.941 255.078,320.703 255.078 C 320.450 255.078,320.343 251.393,320.399 244.629 L 320.486 234.180 320.703 243.555 C 320.893 251.788,320.930 250.872,321.007 236.035 C 321.058 226.172,320.947 219.141,320.741 219.141 C 320.547 219.141,320.327 218.262,320.253 217.187 C 320.178 216.113,320.249 215.234,320.410 215.234 C 320.571 215.234,320.703 214.707,320.703 214.063 C 320.703 213.418,320.527 212.891,320.313 212.891 C 320.069 212.891,319.945 210.946,319.983 207.715 C 320.027 203.992,320.120 203.087,320.313 204.492 L 320.580 206.445 320.669 204.492 C 320.718 203.418,320.806 190.762,320.865 176.367 C 320.924 161.973,321.112 148.745,321.284 146.973 C 321.510 144.634,321.474 143.750,321.150 143.750 C 320.823 143.750,320.703 139.779,320.703 128.906 C 320.703 119.778,320.560 114.063,320.332 114.063 C 320.127 114.063,319.989 113.310,320.024 112.391 C 320.063 111.356,319.833 110.357,319.419 109.765 C 319.051 109.240,318.750 108.498,318.750 108.116 C 318.750 107.734,318.596 107.422,318.408 107.422 C 318.220 107.422,317.932 106.851,317.768 106.152 C 317.603 105.454,317.428 104.751,317.377 104.590 C 317.327 104.429,317.263 104.145,317.236 103.960 C 317.209 103.774,316.759 103.193,316.235 102.669 C 315.562 101.997,315.206 101.090,315.023 99.589 C 313.791 89.448,307.539 82.090,299.609 81.449 L 297.461 81.276 299.609 81.663 C 307.750 83.132,313.044 89.266,314.087 98.438 C 314.295 100.264,314.541 118.809,314.634 139.648 C 315.393 309.994,315.398 307.655,314.268 308.710 C 314.005 308.956,313.856 309.513,313.937 309.949 C 314.071 310.670,314.050 310.665,313.707 309.895 C 313.444 309.304,313.040 309.080,312.373 309.153 C 311.493 309.249,311.442 309.167,311.738 308.137 C 311.914 307.521,312.026 306.888,311.987 306.731 C 311.947 306.574,312.296 306.391,312.762 306.325 C 313.656 306.197,314.649 300.391,313.823 300.115 C 313.623 300.049,313.513 273.865,313.562 238.184 C 313.625 193.212,313.526 175.569,313.199 173.438 C 312.952 171.826,312.736 166.553,312.718 161.719 C 312.676 150.462,312.581 150.000,310.308 150.000 L 308.594 150.000 308.594 143.001 C 308.594 137.913,308.466 135.960,308.126 135.847 C 307.763 135.726,307.763 135.435,308.126 134.545 C 308.419 133.827,308.515 132.375,308.382 130.664 C 308.265 129.160,308.083 125.996,307.976 123.633 C 307.861 121.085,307.550 118.835,307.211 118.105 C 306.897 117.428,306.641 116.168,306.641 115.305 C 306.641 113.289,306.325 112.499,305.525 112.506 C 305.093 112.510,305.033 112.607,305.341 112.803 C 305.688 113.024,305.818 136.379,305.882 209.770 L 305.965 306.445 305.156 308.529 C 304.711 309.675,304.395 310.818,304.453 311.068 C 304.512 311.319,304.484 311.385,304.391 311.217 C 304.298 311.048,303.316 311.847,302.209 312.993 C 300.537 314.723,299.730 315.223,297.450 315.937 L 294.705 316.797 207.997 316.766 C 107.991 316.731,104.933 316.682,102.130 315.071 C 99.362 313.480,98.142 312.234,96.740 309.570 L 95.508 307.227 95.660 214.453 C 95.744 163.428,95.920 119.658,96.051 117.188 L 96.289 112.695 117.621 112.594 L 138.954 112.493 139.639 114.352 C 141.388 119.093,142.584 120.963,145.077 122.854 L 146.600 124.009 154.062 124.276 C 166.250 124.713,248.053 124.662,250.402 124.217 C 255.757 123.201,261.719 117.549,261.719 113.488 C 261.719 113.014,262.303 112.875,264.551 112.817 L 267.383 112.743 265.055 112.600 C 261.922 112.406,261.078 112.669,260.759 113.938 C 260.614 114.517,260.155 115.469,259.740 116.052 C 259.324 116.635,258.984 117.280,258.984 117.485 C 258.984 118.648,256.140 121.417,253.660 122.669 L 250.977 124.023 234.961 123.991 C 161.626 123.841,144.998 123.492,146.360 122.130 C 146.500 121.990,146.380 121.875,146.094 121.875 C 145.807 121.875,145.675 121.773,145.799 121.648 C 145.924 121.524,146.437 121.656,146.939 121.941 C 147.690 122.369,156.060 122.425,194.141 122.258 C 219.600 122.146,232.695 122.001,223.242 121.936 C 213.789 121.870,192.790 121.738,176.579 121.642 C 144.360 121.451,146.649 121.624,144.007 119.188 C 137.381 113.081,138.185 91.198,145.333 83.077 C 146.219 82.070,147.098 81.342,147.286 81.458 C 147.612 81.660,147.446 82.218,146.206 85.079 C 144.852 88.205,145.348 90.675,146.920 88.630 C 148.165 87.011,147.762 88.654,146.096 91.992 C 141.587 101.027,143.896 112.931,150.839 116.436 L 153.155 117.605 200.699 117.494 C 228.718 117.428,248.551 117.235,248.994 117.022 C 249.650 116.707,249.637 116.769,248.896 117.510 C 248.044 118.362,247.716 120.313,248.425 120.313 C 248.633 120.313,248.707 120.005,248.589 119.629 C 248.403 119.038,248.456 119.046,248.985 119.694 C 249.692 120.561,249.062 121.250,247.255 121.588 C 246.402 121.747,246.428 121.775,247.482 121.822 C 249.765 121.924,253.753 118.671,254.720 115.918 C 255.003 115.112,255.467 114.453,255.750 114.453 C 256.089 114.453,256.190 114.152,256.046 113.574 C 255.925 113.091,256.097 111.409,256.429 109.838 C 257.349 105.471,257.254 95.894,256.255 92.401 C 255.651 90.288,255.605 89.813,256.048 90.256 C 256.899 91.106,258.190 96.715,258.201 99.609 C 258.214 102.697,258.577 105.078,259.035 105.078 C 259.578 105.078,259.425 96.606,258.817 92.969 C 258.267 89.677,257.461 87.041,255.930 83.532 C 255.494 82.531,255.241 81.608,255.368 81.481 C 255.495 81.354,255.306 81.250,254.948 81.250 C 254.590 81.250,254.318 81.382,254.343 81.543 C 254.682 83.687,253.500 84.023,251.615 82.320 C 250.788 81.573,249.915 80.894,249.676 80.813 C 249.371 80.709,249.424 80.136,249.852 78.906 C 250.709 76.441,250.426 72.909,249.280 71.762 C 248.433 70.915,248.195 70.896,236.676 70.784 L 224.934 70.670 223.364 67.269 C 221.578 63.401,217.738 57.422,217.041 57.422 C 216.785 57.422,215.411 56.455,213.988 55.273 C 212.564 54.092,211.288 53.125,211.152 53.125 C 211.016 53.125,210.528 52.774,210.067 52.345 C 207.681 50.122,200.377 49.056,195.385 50.202 M209.375 59.651 C 209.912 60.036,211.143 61.048,212.109 61.899 L 213.867 63.446 212.409 61.889 C 211.608 61.033,210.377 60.022,209.675 59.642 C 208.442 58.974,208.432 58.974,209.375 59.651 M206.250 67.310 C 206.250 67.377,206.821 67.948,207.520 68.579 L 208.789 69.727 207.642 68.457 C 206.572 67.274,206.250 67.008,206.250 67.310 M180.469 75.130 C 180.469 75.609,180.120 75.781,179.149 75.781 C 177.470 75.781,177.115 76.260,176.827 78.906 C 176.666 80.389,176.712 80.851,176.974 80.396 C 177.256 79.909,177.690 79.793,178.652 79.949 L 179.949 80.159 180.390 77.500 C 180.632 76.038,180.749 74.760,180.650 74.660 C 180.550 74.561,180.469 74.772,180.469 75.130 M157.548 76.406 C 156.898 78.100,157.424 78.318,162.279 78.370 C 164.837 78.398,168.210 78.536,169.775 78.678 C 172.733 78.946,175.097 77.588,173.447 76.569 C 171.939 75.637,157.898 75.493,157.548 76.406 M209.175 76.576 C 209.026 77.046,208.270 78.158,207.494 79.047 C 206.092 80.653,206.092 80.656,207.373 79.492 C 208.685 78.301,209.978 76.254,209.635 75.911 C 209.531 75.807,209.324 76.107,209.175 76.576 M220.802 82.617 C 220.806 83.477,220.886 83.782,220.979 83.296 C 221.073 82.810,221.069 82.107,220.972 81.734 C 220.874 81.360,220.797 81.758,220.802 82.617 M259.668 81.541 C 261.655 81.612,264.907 81.612,266.895 81.541 C 268.882 81.470,267.256 81.412,263.281 81.412 C 259.307 81.412,257.681 81.470,259.668 81.541 M105.664 82.031 C 106.291 82.301,106.156 82.372,104.980 82.394 C 104.175 82.410,103.516 82.246,103.516 82.031 C 103.516 81.565,104.579 81.565,105.664 82.031 M112.891 82.031 C 112.113 82.534,107.422 82.534,107.422 82.031 C 107.422 81.804,108.687 81.643,110.449 81.647 C 112.548 81.651,113.297 81.769,112.891 82.031 M116.504 81.916 C 116.021 82.009,115.229 82.009,114.746 81.916 C 114.263 81.823,114.658 81.747,115.625 81.747 C 116.592 81.747,116.987 81.823,116.504 81.916 M139.551 81.923 C 138.853 82.010,137.710 82.010,137.012 81.923 C 136.313 81.837,136.885 81.766,138.281 81.766 C 139.678 81.766,140.249 81.837,139.551 81.923 M163.379 84.275 C 165.259 84.347,168.335 84.347,170.215 84.275 C 172.095 84.204,170.557 84.145,166.797 84.145 C 163.037 84.145,161.499 84.204,163.379 84.275 M240.073 84.353 C 240.736 84.511,241.527 84.770,241.831 84.928 C 242.134 85.085,242.042 84.937,241.625 84.599 C 241.208 84.261,240.417 84.002,239.867 84.024 C 238.948 84.061,238.964 84.088,240.073 84.353 M248.633 91.406 C 248.966 92.051,249.327 92.578,249.434 92.578 C 249.542 92.578,249.357 92.051,249.023 91.406 C 248.690 90.762,248.330 90.234,248.222 90.234 C 248.115 90.234,248.300 90.762,248.633 91.406 M251.289 101.172 C 251.289 102.354,251.362 102.837,251.452 102.246 C 251.541 101.655,251.541 100.688,251.452 100.098 C 251.362 99.507,251.289 99.990,251.289 101.172 M250.391 105.764 C 250.391 105.999,249.749 107.039,248.964 108.076 C 248.180 109.113,247.922 109.621,248.391 109.205 C 249.495 108.227,250.940 105.888,250.630 105.578 C 250.499 105.446,250.391 105.530,250.391 105.764 M180.010 111.621 C 189.533 111.679,205.002 111.679,214.385 111.621 C 223.768 111.563,215.977 111.515,197.070 111.515 C 178.164 111.515,170.487 111.563,180.010 111.621 M241.704 111.604 C 242.190 111.698,242.893 111.694,243.266 111.597 C 243.640 111.499,243.242 111.422,242.383 111.427 C 241.523 111.431,241.218 111.511,241.704 111.604 M163.184 170.996 C 173.335 171.054,189.946 171.054,200.098 170.996 C 210.249 170.938,201.943 170.891,181.641 170.891 C 161.338 170.891,153.032 170.938,163.184 170.996 M223.926 170.972 C 224.302 171.071,224.917 171.071,225.293 170.972 C 225.669 170.874,225.361 170.794,224.609 170.794 C 223.857 170.794,223.550 170.874,223.926 170.972 M173.340 174.512 C 188.862 174.568,214.263 174.568,229.785 174.512 C 245.308 174.455,232.607 174.409,201.563 174.409 C 170.518 174.409,157.817 174.455,173.340 174.512 M265.410 189.844 C 265.410 197.256,265.463 200.288,265.527 196.582 C 265.591 192.876,265.591 186.812,265.527 183.105 C 265.463 179.399,265.410 182.432,265.410 189.844 M136.491 186.523 C 136.491 190.605,136.549 192.222,136.620 190.116 C 136.690 188.011,136.690 184.671,136.619 182.695 C 136.548 180.718,136.491 182.441,136.491 186.523 M140.731 182.813 C 140.731 183.779,140.808 184.175,140.901 183.691 C 140.994 183.208,140.994 182.417,140.901 181.934 C 140.808 181.450,140.731 181.846,140.731 182.813 M187.695 187.070 C 186.823 187.447,185.245 189.063,185.749 189.063 C 185.926 189.063,186.418 188.755,186.841 188.379 C 187.582 187.721,187.595 187.725,187.193 188.477 C 186.752 189.302,186.223 190.644,186.167 191.081 C 186.148 191.224,185.976 191.488,185.784 191.667 C 185.581 191.856,185.536 191.462,185.676 190.723 C 185.815 189.993,185.756 189.453,185.537 189.453 C 184.699 189.453,185.125 192.540,186.048 193.144 C 187.034 193.790,200.175 193.567,199.769 192.911 C 199.658 192.731,199.766 192.275,200.008 191.898 C 200.426 191.248,200.438 191.248,200.237 191.895 C 200.120 192.271,200.195 192.578,200.403 192.578 C 200.611 192.578,200.804 192.446,200.831 192.285 C 201.093 190.745,200.997 189.934,200.482 189.353 C 200.148 188.976,199.991 188.551,200.133 188.409 C 200.275 188.267,200.391 188.356,200.391 188.607 C 200.391 188.857,200.577 189.063,200.806 189.063 C 201.034 189.063,201.170 188.755,201.109 188.379 C 201.047 188.003,201.108 187.517,201.245 187.300 C 201.559 186.801,188.818 186.584,187.695 187.070 M312.627 196.387 C 312.752 197.515,312.702 198.438,312.516 198.438 C 312.331 198.438,312.119 197.391,312.046 196.112 C 311.887 193.309,312.308 193.508,312.627 196.387 M312.855 218.750 C 312.829 237.618,312.360 244.016,312.037 229.912 C 311.924 225.014,311.703 222.132,311.414 221.783 C 311.149 221.464,310.919 219.401,310.853 216.773 C 310.771 213.453,310.617 212.330,310.254 212.402 C 309.948 212.463,309.766 212.053,309.766 211.305 C 309.766 210.606,309.928 210.211,310.157 210.352 C 310.670 210.669,311.328 208.898,311.328 207.201 C 311.328 206.463,311.504 205.859,311.719 205.859 C 311.944 205.859,312.109 204.622,312.109 202.930 C 312.109 201.261,312.275 200.000,312.495 200.000 C 312.744 200.000,312.872 206.645,312.855 218.750 M260.408 203.390 C 260.009 203.923,259.130 204.696,258.454 205.108 C 257.016 205.985,257.358 206.114,258.946 205.293 C 259.548 204.982,260.344 204.264,260.715 203.697 C 261.589 202.364,261.352 202.127,260.408 203.390 M142.914 205.055 C 143.422 205.497,144.022 205.859,144.249 205.859 C 144.729 205.859,144.706 205.840,143.164 204.937 L 141.992 204.251 142.914 205.055 M172.754 206.152 C 188.169 206.209,213.394 206.209,228.809 206.152 C 244.224 206.096,231.611 206.049,200.781 206.049 C 169.951 206.049,157.339 206.096,172.754 206.152 M173.535 210.840 C 188.735 210.896,213.608 210.896,228.809 210.840 C 244.009 210.783,231.572 210.737,201.172 210.737 C 170.771 210.737,158.335 210.783,173.535 210.840 M138.452 243.457 L 137.305 244.727 138.574 243.579 C 139.758 242.510,140.023 242.188,139.722 242.188 C 139.654 242.188,139.083 242.759,138.452 243.457 M309.197 249.918 C 308.673 250.442,308.576 249.477,308.866 246.627 L 309.180 243.555 309.295 246.630 C 309.358 248.321,309.314 249.801,309.197 249.918 M164.551 244.434 C 175.884 244.491,194.429 244.491,205.762 244.434 C 217.095 244.376,207.822 244.329,185.156 244.329 C 162.490 244.329,153.218 244.376,164.551 244.434 M233.691 244.433 C 237.720 244.497,244.312 244.497,248.340 244.433 C 252.368 244.370,249.072 244.318,241.016 244.318 C 232.959 244.318,229.663 244.370,233.691 244.433 M142.027 245.733 C 141.471 246.394,141.027 247.229,141.040 247.589 C 141.056 248.010,141.203 247.895,141.454 247.266 C 141.669 246.729,142.215 245.894,142.670 245.410 C 143.124 244.927,143.393 244.531,143.267 244.531 C 143.141 244.531,142.583 245.072,142.027 245.733 M136.427 248.633 C 136.431 249.492,136.511 249.798,136.604 249.312 C 136.698 248.826,136.694 248.123,136.597 247.749 C 136.499 247.376,136.422 247.773,136.427 248.633 M261.110 260.547 C 261.110 266.885,261.164 269.478,261.230 266.309 C 261.295 263.140,261.295 257.954,261.230 254.785 C 261.164 251.616,261.110 254.209,261.110 260.547 M136.497 261.133 C 136.497 266.504,136.552 268.755,136.620 266.136 C 136.687 263.517,136.687 259.122,136.620 256.370 C 136.553 253.619,136.498 255.762,136.497 261.133 M140.786 260.742 C 140.787 264.609,140.845 266.139,140.916 264.140 C 140.987 262.142,140.987 258.978,140.916 257.109 C 140.844 255.240,140.786 256.875,140.786 260.742 M172.198 275.293 C 187.308 275.350,211.917 275.350,226.886 275.293 C 241.855 275.236,229.492 275.190,199.414 275.190 C 169.336 275.190,157.089 275.236,172.198 275.293 M309.254 283.496 C 309.155 283.872,309.075 283.564,309.075 282.813 C 309.075 282.061,309.155 281.753,309.254 282.129 C 309.352 282.505,309.352 283.120,309.254 283.496 M309.644 302.246 C 309.546 302.622,309.466 302.314,309.466 301.563 C 309.466 300.811,309.546 300.503,309.644 300.879 C 309.743 301.255,309.743 301.870,309.644 302.246 M307.813 316.523 C 307.813 316.877,308.243 316.980,309.235 316.865 L 310.658 316.698 309.919 317.698 C 309.512 318.247,308.503 319.104,307.675 319.602 C 306.848 320.100,305.720 320.991,305.169 321.582 C 304.618 322.173,303.880 322.656,303.529 322.656 C 303.178 322.656,302.724 322.801,302.520 322.979 C 301.832 323.577,298.892 324.327,298.075 324.113 C 297.629 323.996,297.360 324.055,297.476 324.244 C 297.593 324.432,297.198 324.688,296.598 324.813 C 295.998 324.937,294.805 325.250,293.945 325.508 C 292.393 325.973,270.260 326.063,217.969 325.816 C 207.334 325.766,185.186 325.736,168.750 325.749 C 152.315 325.761,138.560 325.674,138.184 325.555 C 137.808 325.436,137.500 325.536,137.500 325.778 C 137.500 326.038,137.300 326.089,137.012 325.902 C 136.743 325.728,131.893 325.498,126.234 325.391 C 116.103 325.198,115.934 325.182,115.224 324.304 C 114.628 323.567,114.074 323.397,112.036 323.327 L 109.570 323.242 109.460 321.875 C 109.377 320.847,109.448 320.653,109.747 321.094 C 110.014 321.488,110.146 321.520,110.150 321.191 C 110.155 320.831,111.279 320.703,114.453 320.703 L 118.750 320.703 118.750 319.727 C 118.750 318.848,118.906 318.750,120.313 318.750 C 121.172 318.750,121.875 318.926,121.875 319.141 C 121.875 319.355,121.523 319.531,121.094 319.531 C 120.664 319.531,120.313 319.730,120.313 319.973 C 120.312 320.264,120.804 320.335,121.753 320.181 C 122.545 320.052,123.395 320.115,123.642 320.320 C 123.930 320.560,126.217 320.419,130.041 319.927 C 135.963 319.164,135.996 319.164,136.819 319.932 C 138.220 321.236,143.750 321.073,143.750 319.727 L 143.750 318.750 155.957 318.711 C 162.671 318.690,169.131 318.539,170.313 318.376 C 171.654 318.190,168.282 318.057,161.328 318.020 C 128.922 317.850,106.027 317.488,105.480 317.137 C 105.083 316.881,107.041 316.829,111.328 316.980 C 114.873 317.105,157.645 317.218,206.377 317.231 C 281.883 317.251,294.875 317.334,294.267 317.794 C 293.684 318.236,290.161 318.337,274.902 318.347 C 262.736 318.355,256.250 318.495,256.250 318.750 C 256.250 319.002,260.666 319.141,268.717 319.141 C 277.473 319.141,281.228 319.269,281.329 319.572 C 281.528 320.171,287.056 320.345,288.014 319.783 C 288.597 319.440,288.815 319.450,288.951 319.824 C 289.072 320.159,290.101 320.313,292.220 320.313 C 293.921 320.313,295.313 320.469,295.313 320.661 C 295.313 321.219,296.576 321.549,297.018 321.107 C 297.240 320.885,298.002 320.703,298.711 320.703 C 299.596 320.703,300.000 320.520,300.000 320.117 C 300.000 319.795,300.340 319.531,300.755 319.531 C 301.170 319.531,301.621 319.180,301.758 318.750 C 301.894 318.320,302.268 317.969,302.588 317.969 C 302.909 317.969,303.070 317.806,302.947 317.606 C 302.824 317.407,303.086 317.129,303.529 316.988 C 304.369 316.721,306.250 317.676,306.250 318.368 C 306.250 318.578,306.528 318.750,306.868 318.750 C 307.349 318.750,307.445 318.447,307.301 317.383 C 307.200 316.631,307.274 316.016,307.465 316.016 C 307.656 316.016,307.813 316.244,307.813 316.523 M298.242 316.797 C 297.167 317.259,296.785 317.259,297.070 316.797 C 297.203 316.582,297.697 316.419,298.168 316.434 C 298.993 316.460,298.995 316.473,298.242 316.797 M175.098 318.639 C 175.688 318.729,176.655 318.729,177.246 318.639 C 177.837 318.550,177.354 318.476,176.172 318.476 C 174.990 318.476,174.507 318.550,175.098 318.639 M186.621 318.635 C 187.104 318.728,187.896 318.728,188.379 318.635 C 188.862 318.542,188.467 318.466,187.500 318.466 C 186.533 318.466,186.138 318.542,186.621 318.635 M206.250 318.750 C 206.250 318.965,206.853 319.141,207.590 319.141 C 208.682 319.141,208.953 319.303,209.055 320.020 C 209.173 320.852,209.354 320.898,212.500 320.898 C 215.646 320.898,215.827 320.852,215.945 320.020 C 216.047 319.303,216.318 319.141,217.410 319.141 C 218.147 319.141,218.750 318.965,218.750 318.750 C 218.750 318.506,216.406 318.359,212.500 318.359 C 208.594 318.359,206.250 318.506,206.250 318.750 M223.730 318.647 C 224.858 318.726,226.704 318.726,227.832 318.647 C 228.960 318.568,228.037 318.504,225.781 318.504 C 223.525 318.504,222.603 318.568,223.730 318.647 M233.112 318.642 C 233.815 318.729,234.869 318.728,235.456 318.638 C 236.043 318.549,235.469 318.478,234.180 318.480 C 232.891 318.483,232.410 318.556,233.112 318.642 M237.407 318.636 C 237.893 318.729,238.596 318.726,238.969 318.628 C 239.343 318.530,238.945 318.454,238.086 318.458 C 237.227 318.462,236.921 318.542,237.407 318.636 M249.512 318.642 C 250.210 318.729,251.353 318.729,252.051 318.642 C 252.749 318.555,252.178 318.484,250.781 318.484 C 249.385 318.484,248.813 318.555,249.512 318.642 M215.625 319.531 C 215.625 320.226,215.365 320.313,213.281 320.313 C 211.198 320.313,210.938 320.226,210.938 319.531 C 210.938 318.837,211.198 318.750,213.281 318.750 C 215.365 318.750,215.625 318.837,215.625 319.531 M189.160 320.597 C 189.966 320.681,191.284 320.681,192.090 320.597 C 192.896 320.513,192.236 320.444,190.625 320.444 C 189.014 320.444,188.354 320.513,189.160 320.597 M204.004 320.582 C 204.380 320.680,204.995 320.680,205.371 320.582 C 205.747 320.484,205.439 320.403,204.688 320.403 C 203.936 320.403,203.628 320.484,204.004 320.582 M200.293 324.116 C 201.421 324.195,203.267 324.195,204.395 324.116 C 205.522 324.037,204.600 323.973,202.344 323.973 C 200.088 323.973,199.165 324.037,200.293 324.116 M286.719 323.978 C 286.719 324.060,287.158 324.212,287.695 324.314 C 288.232 324.417,288.672 324.350,288.672 324.165 C 288.672 323.980,288.232 323.828,287.695 323.828 C 287.158 323.828,286.719 323.896,286.719 323.978 M377.786 350.524 C 377.546 350.813,377.466 351.164,377.608 351.305 C 377.749 351.447,377.678 351.563,377.451 351.563 C 375.959 351.563,376.867 353.044,380.702 356.865 L 384.826 360.974 386.064 360.251 C 388.160 359.027,387.924 358.447,383.542 354.049 C 379.562 350.056,378.642 349.493,377.786 350.524 M382.774 353.759 C 386.651 357.408,387.314 358.297,386.822 359.177 C 386.576 359.616,385.516 358.759,382.269 355.494 C 378.571 351.774,377.651 350.391,378.879 350.391 C 379.053 350.391,380.806 351.906,382.774 353.759 M366.379 362.699 C 361.775 367.309,357.815 371.084,357.580 371.087 C 357.345 371.091,356.817 371.489,356.408 371.973 L 355.664 372.852 356.557 372.095 L 357.449 371.339 359.898 373.766 C 361.246 375.101,362.498 376.057,362.682 375.890 C 362.866 375.723,362.907 375.777,362.775 376.010 C 362.642 376.242,363.314 377.199,364.268 378.135 L 366.002 379.837 367.068 378.883 C 367.655 378.359,371.539 374.523,375.700 370.359 L 383.266 362.789 381.607 361.099 C 380.695 360.169,379.798 359.502,379.613 359.616 C 379.429 359.730,379.326 359.591,379.385 359.306 C 379.444 359.022,379.272 358.833,379.004 358.887 C 378.735 358.940,378.560 358.765,378.613 358.496 C 378.667 358.228,378.478 358.056,378.194 358.115 C 377.909 358.174,377.771 358.069,377.887 357.882 C 378.179 357.409,375.999 355.388,375.594 355.756 C 375.413 355.920,375.380 355.855,375.519 355.611 C 375.659 355.366,375.543 354.976,375.261 354.742 C 374.866 354.414,372.856 356.215,366.379 362.699 M356.934 360.189 C 356.281 360.903,356.286 360.973,357.031 361.719 L 357.813 362.500 358.594 361.719 L 359.375 360.938 358.594 360.156 C 357.680 359.243,357.800 359.240,356.934 360.189 M377.942 360.029 C 381.367 363.454,367.329 377.557,363.303 374.737 C 361.350 373.369,363.174 369.224,367.758 364.617 C 372.220 360.132,376.236 358.323,377.942 360.029 M382.255 372.877 C 382.094 373.519,381.588 374.023,380.846 374.282 C 379.417 374.780,379.368 375.226,380.705 375.561 C 381.347 375.723,381.882 376.241,382.157 376.971 C 382.704 378.418,383.022 378.426,383.517 377.005 C 383.765 376.294,384.278 375.792,384.922 375.630 C 386.217 375.306,386.223 374.766,384.936 374.443 C 384.294 374.282,383.789 373.775,383.530 373.033 C 383.034 371.610,382.587 371.555,382.255 372.877 M354.565 374.098 C 353.222 374.804,352.983 375.351,353.477 376.588 C 353.686 377.111,353.868 377.309,353.881 377.028 C 353.895 376.746,354.082 376.625,354.297 376.758 C 354.914 377.139,354.751 376.501,354.109 376.020 C 353.707 375.718,353.644 375.407,353.902 375.000 C 354.364 374.273,362.951 382.592,362.622 383.448 C 362.482 383.814,362.219 383.861,361.743 383.607 C 360.949 383.182,359.506 383.476,358.398 384.288 L 357.617 384.862 358.398 384.539 C 358.828 384.362,359.951 384.209,360.894 384.198 C 362.176 384.184,362.719 383.987,363.043 383.415 C 363.281 382.994,363.702 382.404,363.978 382.104 C 364.536 381.497,363.891 380.287,363.227 380.697 C 363.031 380.818,362.920 380.685,362.979 380.400 C 363.038 380.116,362.866 379.927,362.598 379.980 C 362.329 380.034,362.153 379.858,362.207 379.590 C 362.261 379.321,362.041 379.160,361.719 379.232 C 361.396 379.303,361.265 379.230,361.427 379.068 C 361.830 378.665,360.539 377.302,360.044 377.609 C 359.824 377.744,359.756 377.676,359.891 377.456 C 360.212 376.938,358.836 375.689,358.367 376.073 C 358.169 376.235,358.142 376.204,358.306 376.004 C 358.643 375.594,356.721 373.415,356.079 373.479 C 355.851 373.502,355.169 373.780,354.565 374.098 M352.848 379.312 C 352.608 379.948,352.553 380.469,352.726 380.469 C 353.047 380.469,353.663 378.533,353.419 378.289 C 353.345 378.215,353.089 378.675,352.848 379.312 M351.026 383.082 L 349.956 385.263 351.028 386.382 C 351.617 386.997,352.286 387.486,352.514 387.469 C 352.743 387.452,352.709 387.349,352.439 387.240 C 352.169 387.132,352.064 386.855,352.206 386.625 C 352.348 386.395,352.305 386.304,352.111 386.422 C 351.653 386.701,350.745 385.723,351.098 385.331 C 351.246 385.166,351.147 385.157,350.879 385.312 C 350.162 385.724,350.265 385.404,351.545 383.233 C 352.180 382.156,352.564 381.191,352.397 381.088 C 352.231 380.985,351.614 381.883,351.026 383.082 M355.501 385.313 C 355.251 385.614,354.614 385.969,354.086 386.102 C 353.557 386.235,353.125 386.518,353.125 386.733 C 353.125 386.947,354.048 386.659,355.176 386.092 C 357.673 384.838,357.759 384.766,356.754 384.766 C 356.314 384.766,355.751 385.012,355.501 385.313 " stroke="none" fill="#805f5f" fill-rule="evenodd"></path><path id="path4" d="M195.117 58.319 C 186.006 61.828,180.469 70.741,180.469 81.898 C 180.469 83.333,180.349 83.594,179.688 83.594 C 179.258 83.594,178.906 83.768,178.906 83.981 C 178.906 84.194,178.392 83.830,177.763 83.172 C 176.625 81.981,176.618 81.979,176.169 82.818 C 175.298 84.445,173.594 84.766,165.824 84.766 C 157.134 84.766,155.154 85.367,151.891 88.996 C 146.788 94.674,147.355 106.373,152.914 110.109 L 154.298 111.039 199.156 111.034 C 239.258 111.030,244.134 110.964,245.151 110.413 C 246.144 109.875,246.183 109.795,245.457 109.781 C 244.716 109.767,243.186 109.166,238.672 107.116 C 237.920 106.774,236.294 106.418,235.059 106.325 C 232.836 106.158,231.478 104.688,233.545 104.688 C 234.053 104.688,234.352 104.313,234.521 103.467 C 234.900 101.577,234.820 101.169,234.082 101.203 C 233.674 101.221,233.595 101.313,233.887 101.431 C 234.706 101.761,234.470 103.125,233.594 103.125 C 233.152 103.125,232.813 102.865,232.813 102.525 C 232.813 102.042,232.657 102.009,232.011 102.354 C 230.315 103.262,226.082 103.283,223.580 102.394 C 222.292 101.937,220.677 101.563,219.994 101.563 C 219.010 101.563,218.750 101.399,218.750 100.781 C 218.750 100.087,218.490 100.000,216.406 100.000 C 214.323 100.000,214.063 99.913,214.063 99.219 C 214.063 98.568,213.802 98.438,212.500 98.438 C 211.198 98.438,210.938 98.307,210.938 97.656 C 210.938 97.005,210.677 96.875,209.375 96.875 C 208.073 96.875,207.813 96.745,207.813 96.094 C 207.813 95.573,207.552 95.313,207.031 95.313 C 206.602 95.313,206.250 95.137,206.250 94.922 C 206.250 94.692,204.883 94.531,202.930 94.531 C 200.977 94.531,199.609 94.370,199.609 94.141 C 199.609 93.915,198.372 93.750,196.680 93.750 C 194.796 93.750,193.750 93.595,193.750 93.317 C 193.750 93.056,193.380 92.977,192.818 93.118 C 192.228 93.266,191.709 93.138,191.403 92.770 C 191.137 92.449,190.502 92.188,189.991 92.188 C 189.323 92.188,189.063 91.968,189.063 91.406 C 189.063 90.977,188.914 90.625,188.733 90.625 C 188.180 90.625,186.149 88.721,186.417 88.453 C 186.554 88.316,186.880 88.335,187.141 88.496 C 189.255 89.803,206.774 88.781,210.195 87.152 C 212.429 86.088,212.689 86.043,213.515 86.585 C 214.008 86.908,214.465 87.144,214.530 87.109 C 214.595 87.074,215.129 87.166,215.716 87.313 C 217.894 87.860,220.277 84.971,220.299 81.758 C 220.325 77.936,219.778 75.968,217.196 70.596 C 212.033 59.857,203.478 55.100,195.117 58.319 M204.345 65.837 C 207.856 67.075,210.234 70.434,210.225 74.141 C 210.204 83.014,194.588 84.940,192.187 76.366 C 190.260 69.483,197.327 63.362,204.345 65.837 M197.969 71.893 C 195.912 73.950,197.014 77.109,199.788 77.109 C 202.906 77.109,204.262 73.682,201.923 71.714 C 200.356 70.396,199.423 70.438,197.969 71.893 M198.477 73.716 C 198.102 74.361,198.070 74.352,198.059 73.600 C 198.046 72.696,198.541 71.991,198.750 72.617 C 198.823 72.837,198.701 73.332,198.477 73.716 M239.578 86.093 L 238.726 86.947 240.707 89.079 C 246.392 95.200,248.598 97.266,249.447 97.266 C 249.963 97.266,250.408 97.552,250.512 97.949 C 250.622 98.370,250.708 98.219,250.736 97.559 C 250.761 96.968,250.605 96.484,250.391 96.484 C 250.176 96.484,250.000 96.130,250.000 95.698 C 250.000 94.997,249.355 93.496,248.828 92.969 C 248.721 92.861,248.576 92.510,248.506 92.188 C 248.178 90.681,246.127 88.228,243.971 86.766 C 241.302 84.956,240.790 84.878,239.578 86.093 M166.712 88.443 C 167.726 88.961,169.258 90.114,170.117 91.005 L 171.680 92.625 171.596 96.360 C 171.424 104.103,177.878 108.367,183.602 104.291 C 184.869 103.389,185.938 103.282,185.938 104.059 C 185.938 104.357,186.759 104.988,187.764 105.460 C 189.524 106.287,189.986 106.305,192.676 105.642 C 193.807 105.364,194.291 106.323,193.262 106.804 C 192.993 106.929,194.388 106.967,196.362 106.887 C 198.336 106.807,202.555 106.897,205.737 107.088 C 208.920 107.278,213.105 107.510,215.039 107.602 C 220.396 107.856,223.438 108.227,223.438 108.625 C 223.438 108.823,225.020 108.984,226.953 108.984 C 231.747 108.984,231.404 109.640,226.465 109.918 C 218.275 110.379,185.144 110.604,178.708 110.242 L 172.064 109.868 168.535 108.096 C 164.562 106.100,161.026 103.408,160.161 101.717 C 159.842 101.095,159.282 100.146,158.916 99.609 C 158.493 98.987,158.218 97.711,158.159 96.094 C 157.914 89.372,161.776 85.917,166.712 88.443 M163.377 102.051 C 163.624 102.802,165.234 102.910,165.234 102.176 C 165.234 101.777,164.882 101.563,164.225 101.563 C 163.593 101.563,163.276 101.745,163.377 102.051 M142.982 176.099 C 141.181 177.899,140.905 180.314,141.195 191.679 C 141.441 201.318,141.598 202.624,142.662 203.940 C 143.990 205.581,142.513 205.540,201.192 205.568 L 257.378 205.595 258.762 204.539 C 261.118 202.742,261.121 202.729,261.267 191.016 C 261.422 178.635,261.160 176.509,259.365 175.581 C 258.386 175.075,250.916 175.000,201.161 175.000 L 144.081 175.000 142.982 176.099 M206.871 187.695 C 208.932 190.271,207.519 193.751,204.412 193.749 C 203.597 193.749,199.174 193.787,194.584 193.834 C 186.270 193.920,186.236 193.917,185.502 193.011 C 183.804 190.913,185.204 187.493,188.086 186.699 C 188.516 186.580,192.707 186.493,197.400 186.504 L 205.933 186.523 206.871 187.695 M143.788 245.023 C 141.472 246.218,141.445 246.381,141.354 259.479 L 141.272 271.496 142.413 272.697 C 144.614 275.013,140.901 274.870,201.761 274.972 L 258.013 275.066 259.071 274.234 C 260.670 272.977,260.774 271.887,260.554 258.701 C 260.354 246.659,260.340 246.493,259.462 245.615 L 258.572 244.727 201.649 244.633 C 156.953 244.559,144.525 244.643,143.788 245.023 M214.453 252.737 C 220.066 255.847,218.441 265.001,211.640 268.585 C 209.694 269.611,188.774 269.376,186.491 268.303 C 182.911 266.620,181.304 263.383,181.272 257.783 C 181.235 251.474,181.039 251.543,198.828 251.666 L 212.695 251.763 214.453 252.737 M184.365 253.831 C 180.765 255.577,182.003 263.796,186.303 266.693 C 188.984 268.500,212.881 267.894,213.480 266.003 C 213.615 265.580,213.877 265.234,214.063 265.234 C 214.248 265.234,214.521 264.839,214.668 264.355 C 214.816 263.872,215.162 263.213,215.438 262.891 C 215.911 262.338,216.185 260.096,216.068 257.728 C 215.995 256.247,213.900 253.978,212.373 253.726 C 209.364 253.229,185.421 253.319,184.365 253.831 " stroke="none" fill="#f5f6f6" fill-rule="evenodd"></path></g></svg>